<?xml version="1.0" encoding="UTF-8" standalone="no"?>
<!-- Created with Inkscape (http://www.inkscape.org/) -->

<svg
   version="1.1"
   id="svg2"
   width="4005.3333"
   height="4005.3333"
   viewBox="0 0 4005.3333 4005.3333"
   sodipodi:docname="romero.eps"
   xmlns:inkscape="http://www.inkscape.org/namespaces/inkscape"
   xmlns:sodipodi="http://sodipodi.sourceforge.net/DTD/sodipodi-0.dtd"
   xmlns="http://www.w3.org/2000/svg"
   xmlns:svg="http://www.w3.org/2000/svg">
  <defs
     id="defs6" />
  <sodipodi:namedview
     id="namedview4"
     pagecolor="#ffffff"
     bordercolor="#000000"
     borderopacity="0.25"
     inkscape:showpageshadow="2"
     inkscape:pageopacity="0.0"
     inkscape:pagecheckerboard="0"
     inkscape:deskcolor="#d1d1d1" />
  <g
     id="g8"
     inkscape:groupmode="layer"
     inkscape:label="ink_ext_XXXXXX"
     transform="matrix(1.3333333,0,0,-1.3333333,0,4005.3333)">
    <g
       id="g10"
       transform="scale(0.1)">
      <path
         d="m 15.4297,30040 c -4.1016,0 -8.00782,-1.6 -10.89845,-4.5 C 1.64063,30032.6 0,30028.7 0,30024.6 V 24.5703 C 0,16.0508 6.91016,9.17969 15.4297,9.17969 L 30015.4,9.14063 c 4.1,0 8,1.64067 10.9,4.53127 2.9,2.8906 4.6,6.8008 4.6,10.8984 l -0.1,30000.0297 c 0,8.5 -6.9,15.4 -15.4,15.4 z"
         style="fill:#ffffff;fill-opacity:1;fill-rule:nonzero;stroke:none"
         id="path12" />
      <path
         d="m 14992.1,6861.25 21.2,36.52 c 55.4,104.85 146.7,359.89 78.5,417.85 -67.4,57.27 -257.3,-119.14 -317.5,-222.85 -356,-613.28 -736.4,-1227.46 -1186.5,-1821.17 -43.9,-58.01 -47.3,-93.2 -29.3,-92.46 1.9,-8.52 39.2,12.93 104.5,72.81 116.3,106.84 260.3,264.65 438.9,465.78 322.6,363.4 619.2,744.77 890.2,1143.52 z"
         style="fill:#677d27;fill-opacity:1;fill-rule:nonzero;stroke:none"
         id="path14" />
      <path
         d="m 15366.1,11491.7 16,32 c 72.6,141.3 169.1,205.3 289.3,192.3 38.2,-4.7 74,-36.2 107.5,-94.6 15.4,-32.5 18.4,-83.8 9.1,-153.9 -5.7,-36.6 -15.1,-68.3 -28.2,-95.1 -137.2,-244.9 -249.5,-475.2 -336.9,-691 -83.4,-209.2 -151.1,-404.6 -203,-585.9 l -68.6,-263 -51.2,-236.21 -41.5,-238.71 -31.5,-243.67 -28.3,-319.26 -8.7,-71.21 c -8.4,-46.21 -17.6,-80.78 -27.5,-103.71 -31.3,-43.17 -56,42.77 -74.1,257.77 l -5.5,233.63 4.8,249.07 18,284.37 25.9,244.38 37.1,248.15 47.5,246.9 66.8,281 c 27.6,107.3 66.2,236.6 115.8,388.1 l 63.7,179.4 85.9,219.8 c 12.1,30.2 17.9,43.3 17.6,39.4"
         style="fill:#677d27;fill-opacity:1;fill-rule:nonzero;stroke:none"
         id="path16" />
      <path
         d="m 19800.7,20773.4 15.2,58.4 c 35.7,165.9 63,552.4 -53.3,605.9 -114.9,52.9 -308.4,-263.4 -351.3,-429.6 -253.4,-982.2 -540.2,-1975 -930.7,-2966.7 -38.2,-96.8 -29.2,-146.6 -4.7,-138.6 5.9,-11 49,32.9 115.8,140.6 119,192.1 256.3,465.1 424.6,811 304,625.2 565.1,1265 784.4,1919 z"
         style="fill:#677d27;fill-opacity:1;fill-rule:nonzero;stroke:none"
         id="path18" />
      <path
         d="m 22467.9,20687.9 44.6,22.3 c 320.5,178.1 753.2,475.2 732.1,621 -23.3,160.7 -497.1,104.6 -815,-21.4 -583.3,-231.3 -1173.9,-669.8 -1815.9,-1205.9 -553.3,-462 -1048.3,-978.2 -1495.8,-1537.2 -231,-288.6 -470.9,-607.7 -701.1,-969.8 -201.7,-317.2 -271.1,-489.6 -224.3,-507.3 29.4,15.2 74.5,53.5 128,121 418.2,527.3 747.9,921.6 993.4,1179.8 310.4,326.6 614.4,616 912.9,867.7 687.5,579.6 1433.8,1057.1 2241.1,1429.8 z"
         style="fill:#7a9136;fill-opacity:1;fill-rule:nonzero;stroke:none"
         id="path20" />
      <path
         d="m 18268.5,14013.3 20.7,47.1 c 52.9,134.6 128.9,456 38.4,517 -89.5,60.3 -295.6,-179.3 -354.5,-313.1 -348,-791.5 -725.5,-1587.3 -1190.1,-2367.8 -45.4,-76.3 -44.6,-119.3 -23,-116 3.5,-10.1 45.8,20.9 116.7,102.4 126.5,145.3 279.4,356 468.5,623.9 341.6,484.2 649,986.6 923.3,1506.5 z"
         style="fill:#7a9136;fill-opacity:1;fill-rule:nonzero;stroke:none"
         id="path22" />
      <path
         d="m 17625.5,14257.1 v 0 l -5.4,53.1 c -22.9,225.8 -67.8,428.5 -189,421 -201.3,-12.4 -192.7,-394.3 -187.9,-428.8 32.8,-238.7 49.6,-462.8 41.2,-673.9 -7.6,-193.1 -32.1,-391.8 -77.8,-595.5 -52.8,-235.2 -120,-437.4 -193.5,-609.5 -65.8,-153.5 -175.6,-360.6 -329,-622.3 -16.3,-27.9 -23.3,-56.4 -26.2,-82.5 44.9,-30.2 179.4,122.6 404,457.9 112.8,168.4 226.2,388.7 330.1,664.8 178.7,474.7 253.4,947.8 233.5,1415.7 z"
         style="fill:#677d27;fill-opacity:1;fill-rule:nonzero;stroke:none"
         id="path24" />
      <path
         d="m 11530.4,16465.4 -50.4,41.6 c -146.2,111.2 -513,315.4 -618.8,225.9 -104.6,-88.6 116.9,-423.5 260.2,-541.8 847.3,-699.4 1689.8,-1436.3 2483.3,-2274.5 77.5,-81.9 130.5,-95.9 133.9,-68.2 13.5,0.7 -9.8,63.2 -84.8,178.1 -133.9,204.9 -338.6,464.8 -600.8,788.7 -473.8,585.2 -981.7,1135 -1522.6,1650.2 z"
         style="fill:#677b2d;fill-opacity:1;fill-rule:nonzero;stroke:none"
         id="path26" />
      <path
         d="m 12009.7,18326 -3.6,47.1 c -4.6,132.7 27.7,434.1 124.7,459.2 95.8,24.9 201.1,-245.4 211.2,-379.2 59.6,-791.4 143.4,-1595.6 307.3,-2413.1 16,-79.9 2.2,-116.9 -15.6,-107.5 -6,-7.6 -33.2,32.2 -69.7,124.3 -65.1,164.4 -133.2,393.6 -215,683.2 -147.9,523.4 -260.6,1052.2 -339.3,1586 z"
         style="fill:#7a9136;fill-opacity:1;fill-rule:nonzero;stroke:none"
         id="path28" />
      <path
         d="m 10459.8,17468.9 h 0.1 l -46.7,7.7 c -198.6,32.9 -382.5,41.7 -404.2,-63.8 -36.15,-175.1 292.6,-256.5 323.2,-260.5 211.9,-27.4 407.6,-65.1 586.3,-121.3 163.4,-51.5 327.8,-118.6 491.5,-205.1 189,-99.8 346.4,-204.3 476.6,-307.3 116.1,-91.9 267.7,-234 456,-426.1 20.1,-20.5 42.8,-33 64.5,-41.6 36.3,31.4 -63.2,182 -297.9,452.1 -117.9,135.7 -280.1,283.9 -492.2,437 -364.7,263.3 -752.1,437.2 -1157.2,528.9 h 0.1 z"
         style="fill:#667c22;fill-opacity:1;fill-rule:nonzero;stroke:none"
         id="path30" />
      <path
         d="m 16942.7,11030.9 20.7,47.2 c 52.9,134.5 128.9,456 38.4,516.9 -89.5,60.2 -295.6,-179.3 -354.5,-313.2 -348,-791.4 -725.5,-1587.19 -1190.1,-2367.7 -45.4,-76.29 -44.7,-119.37 -23,-116.05 3.5,-10.04 45.8,21.01 116.7,102.46 126.5,145.23 279.5,355.97 468.5,623.94 341.6,484.15 649,986.55 923.3,1506.45 z"
         style="fill:#677d27;fill-opacity:1;fill-rule:nonzero;stroke:none"
         id="path32" />
      <path
         d="m 18939.5,21474.5 v 0 c -1012.2,-7152 -3097,-12831.41 -6439.1,-18343.56 -68.1,-112.15 -474.3,134.14 -406.3,246.29 3308.5,5456.64 5434.1,10981.07 6437.2,18068.77 18.4,129.9 72.6,1010.3 267.5,1007 131.1,-2.3 147,-526.4 128.7,-656.3 z"
         style="fill:#c6d055;fill-opacity:1;fill-rule:nonzero;stroke:none"
         id="path34" />
      <path
         d="m 10833.6,18027.7 513.4,-461.4 c 1282.8,-1130.4 2322.7,-2758.1 3066.1,-4902 338,-974.5 526,-2032 540.7,-3156.33 24.8,-1906.13 -139.6,-2577.66 -415.7,-2014.1 171.9,2091.72 2.6,3915.83 -603.1,5435.43 -899.2,2256.1 -1722.7,3649.1 -2971.8,4728.1 -439.7,379.9 -363.8,448.1 -129.6,370.3 z"
         style="fill:#c6d055;fill-opacity:1;fill-rule:nonzero;stroke:none"
         id="path36" />
      <path
         d="m 13002.5,17394.8 3.5,49.5 c 10.9,99.7 158.4,840.2 379.8,847.4 221.4,7.2 166.4,-854.9 164,-871.1 -42.5,-291 -61.5,-583.5 -65.8,-876.3 -3.5,-239.6 5.8,-480.6 28,-723 24.5,-267.4 63.9,-533.7 115.3,-799.7 39,-201.4 108.1,-476.3 210.5,-824 12.2,-41.6 23.1,-94.5 24.1,-158.7 0.8,-43 -13.7,-54.2 -36.4,-35.6 -17.4,14.3 -38.5,36.3 -60,69.2 -61.4,93.9 -111.6,197.3 -157.6,306.9 -151.6,361 -278.1,730.7 -373.8,1111.5 -161.1,640.8 -238.4,1275.4 -231.6,1903.9 z"
         style="fill:#7a9136;fill-opacity:1;fill-rule:nonzero;stroke:none"
         id="path38" />
      <path
         d="m 13187.8,17382.9 v 0 l 3.4,48.3 c 29.2,423.9 180.2,378.2 169.7,271 -116.5,-1196.4 5.4,-2297.6 442.5,-3573.3 72.3,-210.8 -1.3,-164.4 -128.3,153 -127,317.5 -243.1,843 -314.2,1152.8 -143.1,623.5 -200.8,1272.8 -173.1,1948.2 z"
         style="fill:#c6d055;fill-opacity:1;fill-rule:nonzero;stroke:none"
         id="path40" />
      <path
         d="m 15592.2,14503.1 c 240,537.6 402.5,1005.7 219,1115.1 -183.5,109.4 -472.1,-508.8 -644.5,-1007.6 -425.5,-1231.3 -597.3,-2051.2 -475.9,-3297.4 251.2,1381.6 518.2,2331.2 810.3,2985.6 z"
         style="fill:#677b2d;fill-opacity:1;fill-rule:nonzero;stroke:none"
         id="path42" />
      <path
         d="m 16474.1,18910 v -0.1 l -24.4,45.3 c -226.3,419.7 -438.3,594.5 -609.5,537 -171.2,-57.5 -121.8,-386.1 98.6,-785.9 173.5,-315 329.2,-545.2 416.6,-719.9 153.2,-306.3 279.6,-590.5 378.3,-853.3 106.2,-283 194.6,-556.5 266.5,-820.2 58.2,-213.8 121.1,-509.7 195.9,-886.5 10.4,-52.4 25.8,-107.3 53.7,-159.2 57.3,-106.6 95.9,29.6 74.3,398.3 -28.2,480.8 -96.8,896.3 -172.2,1250.2 -144.4,677.5 -367.6,1342.8 -677.8,1994.3 v -0.1 z"
         style="fill:#7a9136;fill-opacity:1;fill-rule:nonzero;stroke:none"
         id="path44" />
      <path
         d="m 20366.7,19962.7 v 0 c 483.7,457.3 856.4,875.5 712.3,1069.3 -144.1,193.8 -713.6,-326.4 -1110,-772.6 -978.2,-1100.9 -1513.3,-1882.5 -1927,-3236.3 861.6,1333.6 1552.1,2209.2 2140.9,2765.8 z"
         style="fill:#7a9136;fill-opacity:1;fill-rule:nonzero;stroke:none"
         id="path46" />
      <path
         d="m 13771.9,16400.1 -42.1,33.7 c -222.8,156.7 -395.9,216.8 -519.3,180.1 -155.6,-34.9 -195.5,-144.3 -119.8,-328 60.3,-108 123.1,-188.6 188.4,-241.8 443.2,-325 770.4,-607.5 981.7,-847.4 313.2,-319.7 546.8,-591.4 700.6,-815.3 265.3,-389.5 485,-777.5 659.3,-1163.9 71.5,-158.7 137,-320.3 196.5,-484.7 40.7,-97.4 130.5,-387.5 269.5,-870.5 41.4,-113.5 67.7,-168.7 79.1,-165.6 35.4,-31.4 40.5,91.5 15.5,368.6 -30.4,223.4 -82.5,473.4 -156.5,750.2 -119,452.6 -297.8,916.5 -536.5,1392 -183.9,385.8 -410.2,744 -679,1074.6 -326.1,435 -671.9,807.7 -1037.4,1118 z"
         style="fill:#7a9136;fill-opacity:1;fill-rule:nonzero;stroke:none"
         id="path48" />
      <path
         d="m 12123.6,15234.7 -52.5,13.6 c -269,52.4 -453.8,39 -554.7,-40.1 -131.8,-90.3 -132.4,-202.6 -1.9,-337.2 92.6,-73.5 178.5,-122.5 257.6,-147.2 554,-122.5 1004.6,-262.7 1351.8,-420.7 392.8,-171.8 767.1,-381.5 1122.8,-629.2 363.6,-261.7 679,-536.8 946.2,-825.3 118.8,-126.9 232.4,-258.9 340.7,-396 86.1,-104.7 245.5,-327.2 478,-667.4 76.6,-102.3 124.5,-153.3 143.8,-152.8 21.5,57.1 -25.1,199 -139.8,425.8 -97.9,190.2 -229.2,405.2 -393.7,645 -294.4,422.2 -635.7,805.6 -1023.9,1150.2 -773.4,663.5 -1598.2,1123.9 -2474.4,1381.3 z"
         style="fill:#7a9136;fill-opacity:1;fill-rule:nonzero;stroke:none"
         id="path50" />
      <path
         d="m 18324.6,25248.9 -8.9,38.2 c -127.8,412.2 -270.3,727.3 -391.1,712.8 -120.7,-14.5 -151.6,-379.2 -51.2,-741.4 117.9,-424.7 207.9,-806.2 272.7,-1143.7 l 70.5,-384.9 60,-391.3 56.3,-452 c 39.7,-368.7 64.8,-738.9 76.2,-1110.3 5,-163.8 6,-349.7 5.7,-557.5 -0.1,-37.7 -7.1,-262.7 -15.9,-675.4 -2.6,-124.8 4.3,-201.5 11.9,-230 44.9,-77.7 96.1,163.9 148.4,725.3 48.3,518.2 63.5,1038.5 55.9,1560.6 -2.3,156.4 -11.3,400 -31.6,730.7 l -35.7,432.2 -4.1,37.7 c -48.6,487.1 -121.7,970.1 -219.1,1449 z"
         style="fill:#7a9136;fill-opacity:1;fill-rule:nonzero;stroke:none"
         id="path52" />
      <path
         d="m 17736.8,23863.4 -23.2,46.3 c -108,201 -242,293.6 -402.1,277.5 -50.6,0.3 -101.1,-31.7 -151.5,-96 -37.7,-66.6 -49.5,-148.1 -35.6,-244.5 l 17,-85.5 c 9.3,-31.4 21.6,-62.1 36.8,-92.2 43.9,-73.4 112.1,-198.9 204.5,-376.6 96.6,-193.4 175.5,-362.7 236.9,-508.1 73.8,-171.7 150.7,-373.8 230.7,-606.4 l 104.4,-331.4 100.3,-379.7 75.2,-341.1 61.1,-344.8 46.6,-351.9 42.5,-461.3 11.2,-89.1 c 4.1,-40.2 16.1,-89.8 36,-148.9 17.6,-49.3 36.9,-48 58.2,3.8 29.6,106.6 47.4,224.8 53.6,354.5 l 6.8,337.6 -8.1,360 -27.4,410.8 -38.5,353 -54.9,358.4 -69.8,356.5 -11.6,52.2 -86.2,353.6 -72.5,256.3 -96.8,304 -92.8,259 c -106.1,272.4 -156.4,397 -150.8,374"
         style="fill:#7a9136;fill-opacity:1;fill-rule:nonzero;stroke:none"
         id="path54" />
      <path
         d="m 22651.1,24824.1 42.1,27.5 c 299.7,215.2 697.9,562.5 659.8,705.8 -42,158 -509.1,46.9 -812.3,-116 -556.4,-298.9 -1095.9,-805.9 -1675.5,-1416.3 -499.5,-526.1 -934.5,-1099.7 -1316.9,-1710.4 -197.5,-315.4 -400.3,-662.2 -588.5,-1051 -164.8,-340.5 -214.2,-520.8 -165.3,-533.1 27.7,18.5 68.3,62.1 113.9,135.7 356.9,575.8 640.7,1008.2 856.2,1294.9 272.5,362.6 542.8,687.1 812,973.4 620,659.3 1310.7,1223.2 2074.5,1689.5 z"
         style="fill:#7a9136;fill-opacity:1;fill-rule:nonzero;stroke:none"
         id="path56" />
      <path
         d="m 17339.9,20949.6 v 0 l -20.4,49.1 c -189.3,455.5 -389.4,657.6 -571.6,616.1 -182.2,-41.4 -165.5,-384.8 19.8,-819.3 145.9,-342.3 282.2,-595.3 354.1,-784.3 125.9,-331.2 226.5,-636.9 300.7,-917.6 80,-302.4 142.6,-593.2 189.2,-872.1 37.7,-226.1 71.7,-537.3 109.6,-932.9 5.2,-55 15.3,-113.2 38.7,-169.5 47.9,-115.7 101.8,20.5 117.9,402.3 20.9,497.9 -6.6,932.8 -47.4,1304.8 -78.2,712.5 -238.9,1420.6 -490.6,2123.4 z"
         style="fill:#7a9136;fill-opacity:1;fill-rule:nonzero;stroke:none"
         id="path58" />
      <path
         d="m 20423,14730.6 42.7,27.4 c 240.1,166.1 726.5,614.7 698.7,754.3 -54.6,274.9 -945.4,-210.3 -1054.1,-289.4 -366.1,-266.4 -712.8,-554.6 -1064.7,-836.5 -327.5,-262.5 -936.4,-856.8 -1778.8,-1837.9 -279.7,-325.9 -484.8,-601 -627.9,-813.9 -91.9,-136.8 -151.5,-241.6 -181.1,-312.4 -49.2,-117.5 -53.3,-165.6 -15.1,-143.2 2.9,-4.9 39.8,19.6 97.1,85.8 398.8,460.4 716.6,812.9 959.3,1054 292.3,290.2 671.1,660.6 1165.7,1078.4 560.4,473.3 1153.5,876 1758.2,1233.4 z"
         style="fill:#7a9136;fill-opacity:1;fill-rule:nonzero;stroke:none"
         id="path60" />
      <path
         d="m 16990.5,14440.5 -23.8,50.8 c -107.6,229.4 -374.6,637 -522.3,559.4 -205.5,-108 -122.3,-555.8 -18.7,-783.9 118.4,-260.8 232.7,-489.9 284.2,-716.5 51.5,-226.7 75.4,-432.5 76,-617.4 0.7,-223.9 -22.7,-447.2 -74.8,-669.7 -25.8,-110.2 -58.9,-219.3 -98.9,-327.2 l -169,-412.8 c -12.5,-33.1 -17,-66.3 -12.3,-99.4 2.2,-15.2 19,-15 48.9,0.2 14.6,1.8 61.5,41.9 131.9,127.9 80.4,98.3 152.3,224.3 228.9,368.8 123.8,233.3 225.3,510 287.4,834.9 110.6,578.4 60.2,1140.9 -137.5,1684.9 z"
         style="fill:#7a9136;fill-opacity:1;fill-rule:nonzero;stroke:none"
         id="path62" />
      <path
         d="m 16799.1,14356.1 v -0.1 l -21.8,47.8 c -127.9,227.9 -207.7,288.5 -239.7,182.1 300.9,-650.7 413.9,-1245 364.3,-1785.6 -19.4,-211.4 -65.2,-429.7 -140.5,-654.6 -51.1,-152.9 -213.5,-479.3 -366.3,-720.2 -52.7,-83.1 -15.1,-95.5 13.6,-56.5 648.5,880.6 791,1911.4 390.4,2987.1 v -0.1 z"
         style="fill:#c6d055;fill-opacity:1;fill-rule:nonzero;stroke:none"
         id="path64" />
      <path
         d="m 16196.7,15009.7 -14.4,44.7 c -32.4,89.3 -333.9,737.4 -539.2,694.4 -205.3,-43 38.5,-823.6 44.3,-838.1 104.3,-258.1 187.4,-522.8 256.9,-791.1 57,-219.6 102.3,-443.4 136.3,-671.3 37.4,-251.4 60.8,-505.2 73.1,-761.4 9.3,-194 7.3,-462.2 -9,-805 -1.9,-41 0,-92.1 13.4,-151.4 9,-39.7 24.8,-46.7 41.5,-24.5 12.8,17.1 27.2,42 39.7,77 35.5,100.2 58.4,206.5 76.1,317.7 58.6,366 92.1,734.3 94.8,1106 4.6,625.4 -66.5,1226.5 -213.5,1803 z"
         style="fill:#7a9136;fill-opacity:1;fill-rule:nonzero;stroke:none"
         id="path66" />
      <path
         d="m 16028.8,14957.2 v 0 l -13.9,43.7 c -121.9,383.4 -250.5,307.5 -216.8,211.2 375.2,-1074.2 509.8,-2114.4 393.7,-3385.7 -19.3,-210 38,-150.9 83.7,169.5 45.7,320.4 34.7,829.8 30.7,1130.7 -8.1,605.5 -100.5,1215.7 -277.4,1830.6 z"
         style="fill:#c6d055;fill-opacity:1;fill-rule:nonzero;stroke:none"
         id="path68" />
      <path
         d="m 19862.5,23451.9 20,46.2 c 232.1,534.5 236,767.4 107.3,844 -128.7,76.7 -362.5,-96 -634.8,-590 -272.4,-493.9 -366.4,-1091.5 -502.6,-1690.7 -75,-329.9 -138.3,-643.5 -175.1,-942.6 -17.8,-145 -3.1,-229 27.1,-249.9 41.6,9.3 80.3,61.9 112,159.3 162.8,499.6 341.7,972.9 541.8,1418.2 157,349.2 325.3,684.2 504.3,1005.5 z"
         style="fill:#7a9136;fill-opacity:1;fill-rule:nonzero;stroke:none"
         id="path70" />
      <path
         d="m 19682.5,23871.4 c -385.6,-601.8 -700.8,-1543 -974.6,-2942.3 -20.9,-106.5 23.2,-72.1 41.1,-18.5 103.4,309.5 561.3,1863.7 986.8,2760.5 113.8,239.8 24.8,317.4 -46,208 z"
         style="fill:#c6d055;fill-opacity:1;fill-rule:nonzero;stroke:none"
         id="path72" />
      <path
         d="m 16663.8,22826.3 -39.6,36.6 c -260.3,240.9 -928.5,808.7 -1077.6,628.8 -149.1,-179.9 402.8,-777.1 664.2,-1003.3 261.4,-226.2 512.5,-457.2 735,-714.5 186.6,-215.9 358,-445 510.2,-689.7 175.7,-282.4 314.3,-552.8 422.7,-807.2 56.7,-133 109.6,-268.3 157,-406.4 l 182.6,-581.1 c 30.4,-73.3 51.4,-111.1 63.1,-113.6 67.8,33.9 50.9,295.1 -59,781.8 -86.7,383.5 -214.5,755.4 -376,1117.1 -289.5,648.2 -683.9,1231.9 -1182.6,1751.5 z"
         style="fill:#7a9136;fill-opacity:1;fill-rule:nonzero;stroke:none"
         id="path74" />
      <path
         d="m 15638.9,23363.2 -2,-0.5 c -57.5,0.7 -24,-152.7 201.5,-369.3 586.6,-563.2 1173.3,-1116.7 1635.4,-1784.2 306.4,-442.6 534.2,-1043.1 781.7,-1933.4 43.6,-157 95.3,-105.1 -10.5,259.2 -45.7,157.5 -145.6,500.2 -182.9,617.2 -403.2,1262.1 -1210.9,2332.5 -2423.2,3211 z"
         style="fill:#c6d055;fill-opacity:1;fill-rule:nonzero;stroke:none"
         id="path76" />
      <path
         d="m 17393.4,19087.6 v -0.1 l 4.8,50.2 c 36.9,390.8 -70.4,621.6 -225.7,638 -155.2,16.4 -328.9,-348.3 -354.7,-550.9 -31,-243.5 -19.8,-648.7 3.8,-1211.2 13.4,-321 48.9,-639.6 87.2,-957.4 37,-307.4 104.6,-735.7 238.9,-1277.4 69.5,-280.3 134.7,-408.1 171.2,-394.7 23.2,8.5 38.7,59.4 28,155.9 -76.4,691 -120,1325.2 -102.4,1904.1 20.5,675.9 74,1223.6 148.9,1643.5 v -0.1 z"
         style="fill:#7a9136;fill-opacity:1;fill-rule:nonzero;stroke:none"
         id="path78" />
      <path
         d="m 17140.2,19558.4 -13,-5 c -121.2,-37 -187.3,-678.4 -149.1,-1923.3 27.3,-888.1 128.1,-1572.1 314.6,-2182.7 37.7,-123.4 54.8,-76.5 41.3,12.4 -24.7,162.2 -110.9,523.9 -133.6,719.8 -45,390.1 -74.5,776.8 -87.6,1160 -19.6,571.6 27.4,1238.3 95.1,2004 17.2,194.3 -21.3,222.9 -67.7,214.8 z"
         style="fill:#c6d055;fill-opacity:1;fill-rule:nonzero;stroke:none"
         id="path80" />
      <path
         d="m 15299.8,14928.8 -25.4,40.9 c -220.4,354.2 -460.9,601.7 -638.5,477.3 -177.7,-124.3 25.2,-516.3 180.5,-743.9 155.5,-227.5 292.4,-432.4 402.2,-621.1 76.1,-130.8 157.8,-279.5 243.1,-447.2 l 136.8,-286.5 c 86.9,-191.3 166.6,-386 238.2,-584.5 49.2,-136.5 86.6,-249.3 114.1,-337.7 37.4,-120.5 76.1,-253.6 115,-399.6 l 28.6,-89.8 24.9,-65.9 c 15.3,-36 28.9,-60.3 38.8,-74.6 30,-43.5 50.2,-28.6 57.8,46.8 7,70.3 4,150.4 -7.5,239.5 -51.3,397.2 -128.7,776.3 -229.3,1137.6 -32.9,118.2 -60,209.8 -80.8,275.1 l -89.5,269.8 -99.4,269.6 c -122.5,313.4 -259,611.5 -409.6,894.2 z"
         style="fill:#7a9136;fill-opacity:1;fill-rule:nonzero;stroke:none"
         id="path82" />
      <path
         d="m 14861.1,15109.2 h 0.1 v -0.1 l -8,-9.4 c -25.6,-30.5 -18.1,-74.5 50.8,-190.4 317.1,-533.3 589.4,-1020.8 779.8,-1487.1 171.7,-420.8 393.3,-1356.9 449,-1541.6 10.8,-35.8 85.1,-177.9 39.8,50.6 -63.6,321.3 -267.9,1278.4 -483.8,1785.1 -439.3,1030.8 -755.6,1450.1 -827.7,1392.9 h 0.1 z"
         style="fill:#c6d055;fill-opacity:1;fill-rule:nonzero;stroke:none"
         id="path84" />
      <path
         d="m 19035.9,20325.5 v -0.1 c 14.5,693 -544.4,678.4 -566.1,186 -51.1,-1156.8 -75.4,-2301.8 -496.8,-3442 589.6,695.6 943.2,1767.3 1060.9,3214.9 z"
         style="fill:#7a9136;fill-opacity:1;fill-rule:nonzero;stroke:none"
         id="path86" />
      <path
         d="m 18703.5,20641.8 c 28.1,-1316 -201.7,-2433.4 -708.1,-3571.6 -24.8,-55.8 11.2,-46.3 20.1,-30.4 43.1,77.5 123.9,215.2 251.3,518.7 171.6,409 346.4,906.9 453.4,1516.8 160.2,913.5 181.9,1480.8 88.6,1637.4 -8.6,14.4 -106.9,71.2 -104.8,-56.1 z"
         style="fill:#c6d055;fill-opacity:1;fill-rule:nonzero;stroke:none"
         id="path88" />
      <path
         d="m 14454.3,19342.8 -32.9,36 c -181.7,213.5 -522.1,750.2 -461.8,872.9 118.8,241.6 825.4,-429.1 906.7,-529.4 273.8,-337.8 524.3,-691 781,-1039.8 239,-324.6 657,-1026.8 1195.9,-2145.7 179,-371.6 301.2,-677.7 381.3,-910.7 51.5,-149.6 80.9,-261.7 90.9,-334.7 16.5,-121.2 8.4,-166.8 -21.5,-136.6 -3.9,-3.8 -32,28 -68.9,103.6 -256.1,526 -463.8,931.8 -629.4,1215.5 -199.4,341.7 -459.2,779.2 -814.9,1289.3 -403,577.9 -853.7,1098.4 -1326.4,1579.6 z"
         style="fill:#7a9136;fill-opacity:1;fill-rule:nonzero;stroke:none"
         id="path90" />
      <path
         d="m 19863.6,17759.5 v -0.1 c 483.7,457.4 856.4,875.6 712.3,1069.4 -144.1,193.8 -713.6,-326.5 -1110,-772.5 -978.2,-1101 -1513.3,-1882.6 -1927,-3236.4 861.6,1333.6 1552.1,2209.2 2140.9,2765.8 z"
         style="fill:#7a9136;fill-opacity:1;fill-rule:nonzero;stroke:none"
         id="path92" />
      <path
         d="m 18749.1,17586.1 20.1,46.2 c 232.1,534.6 236,767.4 107.2,844.1 -128.7,76.6 -362.4,-96.1 -634.8,-590 -272.3,-493.9 -366.3,-1091.6 -502.5,-1690.7 -75,-329.9 -138.3,-643.6 -175.1,-942.6 -17.8,-145.1 -3.1,-229 27.1,-249.9 41.6,9.2 80.3,61.9 112,159.3 162.8,499.5 341.7,972.9 541.8,1418.1 157,349.2 325.3,684.2 504.2,1005.5 z"
         style="fill:#7a9136;fill-opacity:1;fill-rule:nonzero;stroke:none"
         id="path94" />
      <path
         d="m 18569.2,18005.6 c -385.6,-601.7 -700.8,-1543 -974.7,-2942.2 -20.8,-106.5 23.3,-72.1 41.2,-18.6 103.3,309.5 561.3,1863.7 986.8,2760.5 113.8,239.9 24.8,317.4 -46.1,208.1 z"
         style="fill:#c6d055;fill-opacity:1;fill-rule:nonzero;stroke:none"
         id="path96" />
      <path
         d="m 19201.4,10925.2 45.5,21.2 c 327.3,170.4 770.8,457.5 753.5,604.8 -19.1,162.3 -497.2,118.8 -820.5,0.7 -593.2,-216.8 -1199.3,-641.9 -1859.9,-1163.7 -569.2,-449.65 -1081.3,-955.54 -1546.8,-1505.74 -240.2,-284.06 -490.3,-598.55 -731.8,-956.56 -211.6,-313.6 -286.1,-485.16 -239.5,-504.26 30,14.49 76.4,51.8 132.1,118.2 435.1,519.18 777.5,906.84 1031.6,1159.96 321.2,320.12 635,602.97 942.1,848.05 707.5,564.45 1471.4,1024.35 2293.7,1377.35 z"
         style="fill:#677d27;fill-opacity:1;fill-rule:nonzero;stroke:none"
         id="path98" />
      <path
         d="m 13842.1,11768.2 -23.1,46.2 c -10.4,29.1 -49.3,84.1 -116.7,164.9 -27.8,28.7 -57,51.9 -87.4,69.8 -55.3,36.1 -126.9,50 -214.9,41.8 -138.2,-43.7 -195,-156.9 -170.2,-339.5 7.9,-61.4 22.6,-113.9 44.1,-157.5 169,-292.6 327.6,-613.7 475.8,-963.2 40.9,-94.3 100.7,-251.4 179.4,-471.6 l 26.6,-76.4 104.4,-331.41 100.3,-379.69 75.2,-341.09 61,-344.81 46.7,-351.95 42.5,-461.21 12.9,-102.85 c 9.3,-55.74 22.7,-105.67 40.2,-149.77 16,-33.79 33.4,-27.69 52.3,18.36 25.5,80.51 43.3,198.67 53.6,354.53 l 6.8,337.58 -8.1,359.92 -27.4,410.86 -38.5,353.05 -54.9,358.32 -69.8,356.56 -97.8,405.8 -72.6,256.3 -96.7,304 -92.8,259 c -41.6,107.2 -83.3,212.9 -125.1,317.2 -19.7,48.1 -28.2,67 -25.8,56.8"
         style="fill:#7a9136;fill-opacity:1;fill-rule:nonzero;stroke:none"
         id="path100" />
      <path
         d="m 13506.1,10699.2 -45.5,32.5 c -206.3,147.2 -639,371.4 -729.7,231.3 -126.1,-194.9 166.2,-544.3 368.3,-692.3 231.2,-169.1 443.2,-312.65 599.2,-484.88 156.1,-172.3 277.9,-339.92 369.1,-500.7 110.5,-194.81 199.6,-400.82 263.4,-620.24 31.6,-108.75 56.2,-220.04 74.3,-333.67 l 55.3,-442.62 c 5.4,-35 17.7,-66.13 38.1,-92.61 9.3,-12.19 23.9,-3.83 42.5,24.18 11.8,8.63 33,66.6 52.1,176.09 21.9,125.04 22.7,270.16 18.6,433.67 -6.6,264.03 -53.9,555 -159.2,868.56 -187.4,558.2 -507.2,1023.62 -946.5,1400.72 z"
         style="fill:#7a9136;fill-opacity:1;fill-rule:nonzero;stroke:none"
         id="path102" />
      <path
         d="m 13380.8,10531.7 h 0.1 l -42.5,30.9 c -223.2,135.8 -322.6,149.6 -298.2,41.1 581.4,-419.4 971.5,-881.86 1193.5,-1377.22 86.8,-193.75 153.9,-406.44 198.7,-639.33 30.4,-158.32 49,-522.42 34.1,-807.27 -5.1,-98.32 33.7,-90.62 39.6,-42.58 133,1085.4 -248.5,2053.64 -1125.3,2794.4 h 0.1 z"
         style="fill:#c6d055;fill-opacity:1;fill-rule:nonzero;stroke:none"
         id="path104" />
      <path
         d="m 15831.8,10798.6 v 0 c 14.5,692.9 -544.4,678.3 -566.1,186 -51.1,-1156.87 -75.4,-2301.83 -496.8,-3442.06 589.6,695.62 943.2,1767.26 1060.9,3214.96 z"
         style="fill:#7a9136;fill-opacity:1;fill-rule:nonzero;stroke:none"
         id="path106" />
      <path
         d="m 15499.4,11115 c 28.1,-1316.09 -201.7,-2433.44 -708.1,-3571.68 -24.8,-55.74 11.2,-46.29 20.1,-30.31 43.1,77.42 123.9,215.19 251.3,518.59 171.6,409.06 346.4,906.92 453.4,1516.84 160.2,913.46 181.9,1480.86 88.5,1637.46 -8.5,14.3 -106.7,71.1 -104.7,-56.1 z"
         style="fill:#c6d055;fill-opacity:1;fill-rule:nonzero;stroke:none"
         id="path108" />
      <path
         d="m 17577.4,9361.6 v -0.04 0.04 -0.04 c 584.7,318.17 1052,626.99 962.4,851.24 -89.7,224.3 -773.5,-132.8 -1270.9,-462.45 -1227.5,-813.71 -1829.2,-1254.88 -2575.9,-2457.54 -113.3,-182.46 -74.4,-271.01 138.5,6.45 393.9,513.12 1438.9,1333.04 1828.3,1577.22 249.6,156.57 438.2,224.3 695.4,364.26 z"
         style="fill:#7a9136;fill-opacity:1;fill-rule:nonzero;stroke:none"
         id="path110" />
      <path
         d="m 20464,16945.6 v 0 c 558.2,295.6 1004.9,583.5 922.3,797.3 -82.7,213.7 -735.3,-117.7 -1210.7,-425.2 -728.6,-471.1 -1269.7,-872.9 -1748,-1381.1 -292,-310.3 -1155.1,-1162 -834,-1089.7 1125.7,1001 1978.9,1626.7 2658.4,1986.5 z"
         style="fill:#7a9136;fill-opacity:1;fill-rule:nonzero;stroke:none"
         id="path112" />
      <path
         d="m 16970.4,10194.9 45.3,25.3 c 297.7,165.9 1050.3,544.3 1148.7,342.5 98.3,-201.9 -552.4,-634.11 -847.8,-785.94 -295.3,-151.84 -582.2,-310.51 -848.3,-500.24 -223.2,-159.18 -435.2,-334.22 -632.8,-528.08 -228.1,-223.75 -418.9,-444.69 -577.8,-657.62 -83.1,-111.33 -163.3,-225.59 -238.9,-343.79 l -302.3,-500.98 c -45,-61.56 -73.3,-92.14 -84.7,-91.75 -55.6,47.03 19.5,287.03 232.5,716.4 168,338.4 371.7,656.53 604.6,957.58 417.4,539.42 918,994.84 1501.5,1366.62 z"
         style="fill:#7a9136;fill-opacity:1;fill-rule:nonzero;stroke:none"
         id="path114" />
      <path
         d="m 18049,10463.6 1.7,-0.9 c 54,-12.3 -12.1,-148 -271.8,-299 -675.5,-392.72 -1348.8,-776.2 -1931.7,-1294.56 -386.5,-343.55 -735.4,-852.46 -1168.5,-1627.5 -76.4,-136.64 -112.8,-76.48 68.6,239.65 78.4,136.68 249.4,433.91 310.9,534.65 662.7,1086.76 1659.7,1902.65 2990.8,2447.66 z"
         style="fill:#c6d055;fill-opacity:1;fill-rule:nonzero;stroke:none"
         id="path116" />
      <path
         d="m 11938.5,14194.2 -36.4,16.2 c -188.5,70.6 -323.5,81.3 -404.9,32.1 -104.7,-53.9 -112.9,-139.6 -24.5,-256.9 63.2,-66 123.1,-111.9 179.7,-137.8 377.4,-149.8 664,-290.9 859.8,-423 283.5,-170.3 501.1,-321.1 652.8,-452.5 262.3,-229.1 491.6,-465.6 688.2,-709.5 80.7,-100.2 157.7,-203.5 230.8,-310 47.2,-62 165.4,-252.8 354.8,-572.2 50.8,-73.4 79.9,-108 87.5,-103.7 31.1,-15.9 11.9,72.9 -57.7,266.5 -63.3,154 -147.2,323.1 -251.6,507.2 -169.3,301.5 -383.6,600 -642.8,895.5 -203.4,241.6 -432,455.5 -685.8,641.9 -314.1,250.3 -630.8,452.4 -949.9,606.2 z"
         style="fill:#7a9136;fill-opacity:1;fill-rule:nonzero;stroke:none"
         id="path118" />
      <path
         d="m 10735.9,18169.6 -29.2,19.8 c -60.4,37.8 -538.3,281.4 -639.8,161.1 -101.39,-120.3 403.6,-469 413.8,-474.8 180.9,-104.4 352.4,-222.4 517.6,-348.9 135.2,-103.5 265.5,-214.7 390.9,-333.7 138.4,-131.3 269.6,-270.5 395.3,-416.3 95.2,-110.3 218.1,-269.8 367,-479.9 17.8,-25.1 42.5,-54.4 77.9,-83.3 23.7,-19.4 36.2,-16.2 35.8,4.7 -0.2,16 -3.3,37.4 -12.1,63.8 -25.4,75.7 -61,149.1 -101.9,223 -134.6,243.5 -285.1,476.7 -455.4,697.6 -286.5,371.8 -606.4,694.1 -959.9,966.9 z"
         style="fill:#7a9136;fill-opacity:1;fill-rule:nonzero;stroke:none"
         id="path120" />
      <path
         d="m 10660.9,18061 h 0.1 l -28.5,19.4 c -249.3,170.2 -290.2,65.9 -225.8,24.6 718.5,-461.5 1279,-1014 1798.2,-1819.1 85.8,-133.1 92.3,-71.6 -28.8,138.9 -121.2,210.5 -363.2,506.5 -504.8,682.5 -284.7,354.1 -621.5,672 -1010.4,953.7 h 0.1 z"
         style="fill:#c6d055;fill-opacity:1;fill-rule:nonzero;stroke:none"
         id="path122" />
      <path
         d="m 12570.2,18855.7 10.9,26.9 c 63,132.2 128.3,206 195.8,221.3 82.2,24.7 129.7,-16 142.6,-122.1 0.3,-66.5 -7.9,-120.9 -24.5,-163 -122,-269.2 -200.9,-487.8 -236.6,-655.9 -62.5,-232.5 -100.3,-421.4 -113.4,-566.9 -21.6,-252.4 -22.3,-492.2 -2.1,-719.2 8.4,-93.3 20.2,-186.3 35.7,-279 6.6,-56.4 41,-216 103.2,-479 10.5,-64.1 12.7,-97 6.6,-98.5 -8.3,-24 -43.1,32.2 -104.4,168.7 -44.7,112.7 -86.1,243.6 -124.5,392.8 -63.6,243.5 -102.1,508 -115.6,793.8 -15.5,229.3 -3.9,456.8 34.9,682.6 38.1,289.9 101.9,555.7 191.4,797.5 z"
         style="fill:#7a9136;fill-opacity:1;fill-rule:nonzero;stroke:none"
         id="path124" />
      <path
         d="m 10643.2,18883.9 -32.9,23.4 c -147.1,101.8 -277,114.3 -389.6,37.5 -35.5,-24.8 -54.3,-75.2 -56.6,-151 1.8,-40.5 26.1,-93.1 72.6,-157.8 25,-33.3 51.2,-59.9 78.5,-79.6 266.3,-170.6 500.2,-340 701.6,-508.1 193.9,-163.7 364.8,-321.9 512.6,-474.7 l 207.8,-225 176.2,-207.6 167.9,-215.3 160.6,-225.5 197.6,-302.3 46.5,-66.1 c 32.9,-41.5 60.3,-71 82.4,-88.6 53.9,-26.3 32.9,72.3 -63.2,295.6 l -118.5,235.1 -137,245.1 -168.8,273.1 -155.3,229.2 -168.7,226.9 -178.2,220.2 -215.5,243.9 -143.5,150.1 -177.6,174.2 -158.5,144.6 c -82.7,71.5 -150,129.1 -202,172.9 -33.7,28 -46.5,37.9 -38.4,29.8"
         style="fill:#7a9136;fill-opacity:1;fill-rule:nonzero;stroke:none"
         id="path126" />
      <path
         d="m 12073.8,10323.1 -25.6,35.6 c -354.3,490.9 -397.8,727.2 -299.8,817.7 98.1,90.6 592.6,-303.1 829.7,-686.4 442.9,-716.29 747.2,-1503.83 879.5,-2375.43 99.5,-655.23 103.9,-1283.12 -1.3,-1875.78 -152.7,-860 -341.1,-1385.86 -533.7,-1583.36 -5.1,1.84 -7.3,11.72 -6.7,29.69 l 21,114.53 12.4,49.69 c 110.9,400.86 175.5,668.67 200.1,802.34 37.3,202.03 67.5,404.65 86.3,608.79 41.1,448.12 32.5,919.33 -45.1,1411.29 -159.6,1012.34 -537.5,1895.19 -1116.8,2651.34 z"
         style="fill:#7a9136;fill-opacity:1;fill-rule:nonzero;stroke:none"
         id="path128" />
      <path
         d="m 17227.9,7936.64 42.7,27.42 c 240.1,166.06 726.5,614.65 698.7,754.3 -54.6,274.92 -945.4,-210.27 -1054.1,-289.38 -366.1,-266.4 -712.8,-554.6 -1064.6,-836.56 -327.5,-262.46 -936.5,-856.8 -1778.8,-1837.89 -279.8,-325.86 -484.9,-601.01 -627.9,-813.91 -92,-136.71 -151.6,-241.56 -181.2,-312.34 -49.1,-117.5 -53.3,-165.58 -15.1,-143.2 3,-4.85 39.8,19.61 97.2,85.82 398.7,460.35 716.5,812.93 959.3,1053.94 292.2,290.24 671,660.71 1165.7,1078.48 560.4,473.24 1153.4,875.98 1758.1,1233.32 z"
         style="fill:#7a9136;fill-opacity:1;fill-rule:nonzero;stroke:none"
         id="path130" />
      <path
         d="m 14167.7,7948.67 c 43.2,694.26 -517.8,702.74 -560,209.96 -99.1,-1157.89 -170.8,-2304.96 -640.5,-3430.86 619.9,673.13 1018.9,1733.05 1196.8,3179.77 z"
         style="fill:#7a9136;fill-opacity:1;fill-rule:nonzero;stroke:none"
         id="path132" />
      <path
         d="m 13847.5,8279.69 c -26.3,-1320.78 -303,-2431.68 -857.9,-3552.07 -27.1,-54.85 9.3,-46.88 18.9,-31.21 46.5,75.86 133.2,210.62 273.4,509.61 189.1,403.04 385,895.03 517.5,1502.18 198.4,909.34 243.7,1477.35 156.6,1638.25 -8,14.68 -104.2,75.7 -107.4,-51.92 z"
         style="fill:#c6d055;fill-opacity:1;fill-rule:nonzero;stroke:none"
         id="path134" />
    </g>
  </g>
</svg>
